<svg width="180" height="180" viewBox="0 0 180 180" fill="none" xmlns="http://www.w3.org/2000/svg">
<path d="M15.5249 34.5C21.5249 8.55001 60.5999 8.55001 66.5249 34.5C70.0499 49.725 60.3749 62.625 51.9749 70.65C45.8249 76.5 36.1499 76.425 29.9999 70.65C21.6749 62.625 11.9999 49.725 15.5249 34.5Z" stroke="black" stroke-width="11.25"/>
<path d="M113.025 124.5C119.025 98.55 158.325 98.55 164.325 124.5C167.85 139.725 158.175 152.625 149.7 160.65C143.55 166.5 133.8 166.425 127.65 160.65C119.175 152.625 109.5 139.725 113.025 124.5Z" stroke="black" stroke-width="11.25"/>
<path d="M90.0002 37.5H110.1C123.975 37.5 130.425 54.675 120 63.825L60.0752 116.25C49.6502 125.325 56.1002 142.5 69.9002 142.5H90.0002" stroke="black" stroke-width="11.25" stroke-linecap="round" stroke-linejoin="round"/>
<path d="M41.1469 41.25H41.2335" stroke="black" stroke-width="15" stroke-linecap="round" stroke-linejoin="round"/>
<path d="M138.647 131.25H138.734" stroke="black" stroke-width="15" stroke-linecap="round" stroke-linejoin="round"/>
</svg>
